<svg width="880" height="320" viewBox="0 0 880 320" xmlns="http://www.w3.org/2000/svg" role="img" aria-label="3D Skill Bars">
  <defs>
    <linearGradient id="gA" x1="0" x2="0" y1="0" y2="1">
      <stop offset="0%" stop-color="#00FFB3"/><stop offset="100%" stop-color="#0a6a52"/>
    </linearGradient>
    <linearGradient id="gB" x1="0" x2="0" y1="0" y2="1">
      <stop offset="0%" stop-color="#66E3FF"/><stop offset="100%" stop-color="#1b5b72"/>
    </linearGradient>
    <linearGradient id="gC" x1="0" x2="0" y1="0" y2="1">
      <stop offset="0%" stop-color="#FFE066"/><stop offset="100%" stop-color="#7a6a1b"/>
    </linearGradient>
    <linearGradient id="gD" x1="0" x2="0" y1="0" y2="1">
      <stop offset="0%" stop-color="#B366FF"/><stop offset="100%" stop-color="#4b1b70"/>
    </linearGradient>
  </defs>

  <rect x="0" y="0" width="880" height="320" fill="#0b0f12" rx="14"/>
  <text x="440" y="28" fill="#9adfd0" font-family="monospace" font-size="16" text-anchor="middle">Skill Landscape — React/Next • Node/Nest • Python/FastAPI • DevOps</text>
  <polygon points="60,270 830,270 770,300 0,300" fill="#0e1418"/>
  <line x1="80" y1="260" x2="820" y2="260" stroke="#203036" stroke-width="2"/>
  <line x1="80" y1="100" x2="80" y2="260" stroke="#203036" stroke-width="2"/>
  <text x="86" y="110" fill="#3a8f7a" font-family="monospace" font-size="11">depth</text>

  <!-- React/Next/TS -->
  <g transform="translate(150,0)">
    <rect x="0" y="150" width="120" height="110" fill="url(#gA)"/>
    <polygon points="0,150 25,132 145,132 120,150" fill="#00e6a3"/>
    <polygon points="120,150 145,132 145,242 120,260" fill="#0b7b5e"/>
    <text x="60" y="280" fill="#88c8ba" font-family="monospace" font-size="12" text-anchor="middle">React/Next/TS</text>
  </g>

  <!-- Node/Nest -->
  <g transform="translate(340,0)">
    <rect x="0" y="165" width="120" height="95" fill="url(#gB)"/>
    <polygon points="0,165 25,150 145,150 120,165" fill="#58d0ea"/>
    <polygon points="120,165 145,150 145,245 120,260" fill="#1f6d84"/>
    <text x="60" y="280" fill="#88c8ba" font-family="monospace" font-size="12" text-anchor="middle">Node/Nest</text>
  </g>

  <!-- Python/FastAPI -->
  <g transform="translate(530,0)">
    <rect x="0" y="160" width="120" height="100" fill="url(#gC)"/>
    <polygon points="0,160 25,143 145,143 120,160" fill="#ffd64d"/>
    <polygon points="120,160 145,143 145,243 120,260" fill="#8c7a1f"/>
    <text x="60" y="280" fill="#88c8ba" font-family="monospace" font-size="12" text-anchor="middle">Python/FastAPI</text>
  </g>

  <!-- DevOps/Cloud -->
  <g transform="translate(720,0)">
    <rect x="0" y="185" width="120" height="75" fill="url(#gD)"/>
    <polygon points="0,185 25,171 145,171 120,185" fill="#a65df2"/>
    <polygon points="120,185 145,171 145,246 120,260" fill="#5a2a88"/>
    <text x="60" y="280" fill="#88c8ba" font-family="monospace" font-size="12" text-anchor="middle">DevOps/Cloud</text>
  </g>
</svg>
